<svg width="209" height="63" viewBox="0 0 209 63" fill="none" xmlns="http://www.w3.org/2000/svg">
<rect width="63" height="63" fill="#B50000"/>
<rect x="73" width="63" height="63" fill="#B50000"/>
<rect x="146" width="63" height="63" fill="#B50000"/>
<path d="M46.3281 44.3281C44.957 45.9701 43.0189 47.248 40.5137 48.1621C38.0085 49.0592 35.2324 49.5078 32.1855 49.5078C28.9863 49.5078 26.1764 48.8138 23.7559 47.4258C21.3522 46.0208 19.4902 43.9896 18.1699 41.332C16.8665 38.6745 16.1979 35.5514 16.1641 31.9629V29.4492C16.1641 25.7591 16.7819 22.5684 18.0176 19.877C19.2702 17.1686 21.0645 15.1035 23.4004 13.6816C25.7533 12.2428 28.5039 11.5234 31.6523 11.5234C36.0365 11.5234 39.4642 12.5729 41.9355 14.6719C44.4069 16.7539 45.8711 19.7923 46.3281 23.7871H38.9141C38.5755 21.6712 37.8223 20.1224 36.6543 19.1406C35.5033 18.1589 33.9121 17.668 31.8809 17.668C29.291 17.668 27.319 18.6413 25.9648 20.5879C24.6107 22.5345 23.9251 25.429 23.9082 29.2715V31.6328C23.9082 35.5091 24.6445 38.4375 26.1172 40.418C27.5898 42.3984 29.748 43.3887 32.5918 43.3887C35.4525 43.3887 37.4922 42.7793 38.7109 41.5605V35.1875H31.7793V29.5762H46.3281V44.3281Z" fill="white"/>
<path d="M94.9785 12.0312L104.475 38.8438L113.92 12.0312H123.924V49H116.281V38.8945L117.043 21.4512L107.064 49H101.834L91.8809 21.4766L92.6426 38.8945V49H85.0254V12.0312H94.9785Z" fill="white"/>
<path d="M192.531 18.2012H181.207V49H173.59V18.2012H162.418V12.0312H192.531V18.2012Z" fill="white"/>
</svg>
